PathFileType	4	(X/Y/Z)	0331.trc
DataRate	CameraRate	NumFrames	NumMarkers	Units	OrigDataRate	OrigDataStartFrame	OrigNumFrames
120	120	4	27	m	120	126	1006
Frame#	Time	RHip			RKnee			RAnkle			RBigToe			RSmallToe			RHeel			LHip			LKnee			LAnkle			LBigToe			LSmallToe			LHeel			Nose			REye			LEye			RShoulder			RElbow			RWrist			RThumb			RIndex			RPinky			LShoulder			LElbow			LWrist			LThumb			LIndex			LPinky		
		X	Y	Z	X	Y	Z	X	Y	Z	X	Y	Z	X	Y	Z	X	Y	Z	X	Y	Z	X	Y	Z	X	Y	Z	X	Y	Z	X	Y	Z	X	Y	Z	X	Y	Z	X	Y	Z	X	Y	Z	X	Y	Z	X	Y	Z	X	Y	Z	X	Y	Z	X	Y	Z	X	Y	Z	X	Y	Z	X	Y	Z	X	Y	Z	X	Y	Z	X	Y	Z	X	Y	Z
129	1.075	0.0319740321108729	0.2153738627447856	0.8993989456361028	-0.0014085601563859	0.2202765034449965	0.483358487347226	-0.0390648204483251	0.2643455904477189	0.0824087303707095	-0.0409643801377933	0.0624345447938111	0.0175360505637263	-0.0808167885557187	0.0995811042979588	0.021990022754935	-0.0394876590402205	0.3043439602519762	0.0230634632095968	0.2590126004682982	0.221257817877441	0.8995108365796322	0.273244797880875	0.2192214215677544	0.4778734262178771	0.3026711509823306	0.2851252797919253	0.0778011248286767	0.3188844287790839	0.0781045255352217	0.0181071812575723	0.3460318617601704	0.1207766598911271	0.0218385288600741	0.2950132429269926	0.3192461571096686	0.0216544904865509	0.1526367557830777	0.0868605495171982	1.6003742405766634	0.1281000476630737	0.099011458341315	1.629280799259224	0.1759784361292555	0.1098004619315425	1.6292638566588669	-0.0295375619598252	0.2393889322982474	1.42957703422939	-0.2875667287069455	0.199730026540687	1.4659488421181357	-0.5211143547208584	0.1463363873431205	1.5134108577565644	-0.5899749670769571	0.1030738397329083	1.5131794793299291	-0.6271873652955168	0.1224605090855679	1.5369819962413442	-0.6189009541364572	0.1411505370994656	1.522275049434601	0.3410658895332627	0.2576109317459106	1.4299994317895792	0.596456975003932	0.2237092216145149	1.4474390695417907	0.839755008498506	0.1781915934017513	1.4586631280860425	0.9034622636636936	0.1444600496477472	1.4694645555494403	0.9492012482445557	0.1670391615843225	1.480795335562925	0.946215979349328	0.1838604430192222	1.4626157613788289
130	1.0833333333333333	0.0320797729650026	0.2149963070173368	0.8993793797647449	-0.0013440188191868	0.2202857104747002	0.4832365292925808	-0.0392083418551497	0.2642186169699775	0.0824452148798357	-0.0408194026346791	0.0622309584501687	0.0174478005933642	-0.0809764692105402	0.0994782692911925	0.0219178331816608	-0.0395281210714435	0.3042067643555513	0.0231003184229757	0.2590323279298494	0.2209988378189543	0.8995366512753622	0.2732004382608911	0.2191678075571062	0.4779068270421678	0.3025149307882105	0.2851162832896381	0.0777797223354358	0.3189393757507532	0.0778242990374087	0.0182461519945578	0.3460479857522235	0.120583494316203	0.0219295193685266	0.2948833634395556	0.3193224811988528	0.0215064764338624	0.152853451151908	0.0872312157715873	1.6004065540739827	0.1281509080158682	0.099343900193352	1.6293941836496038	0.1760860498676488	0.1101947921393556	1.6292913486865623	-0.0296925250651532	0.2394834002678762	1.4298521640874506	-0.2874600373554432	0.1996566521825304	1.4686323797346592	-0.5207341456288757	0.146886313804866	1.5181633138257566	-0.5904325156804414	0.1045308777094813	1.5182470663926813	-0.6273272960551513	0.123033729920668	1.5423430730754462	-0.6183938789373362	0.1414193116744748	1.5272292422438678	0.3409297130063063	0.2578361790103439	1.430398825084339	0.5960921068761224	0.2232356021771989	1.4505293643783437	0.8391522758366352	0.1778688756350426	1.463690714548585	0.9031179103778424	0.1441307674255986	1.475060689116219	0.9479036667402868	0.1657787868370843	1.487041450881199	0.94615635959663	0.1842119232301881	1.468480590812303
131	1.0916666666666666	0.0321740032611198	0.2146395027051055	0.8993267732006203	-0.0012994663625067	0.2203007817150027	0.4831614884042257	-0.0393635414799073	0.2640572304195187	0.0825344170270947	-0.0406277941404408	0.0620838946835887	0.0173831274778758	-0.0810817881750634	0.0994486447679813	0.0218598551668042	-0.0395070715877195	0.3040364936652011	0.0231738758611341	0.259042229385808	0.220760363082699	0.8995271313142255	0.2731578470747805	0.2191151781840735	0.4780014127357957	0.3023924675036759	0.285094365029409	0.0777933858238131	0.3190772239306138	0.0775068305972462	0.0183353496133174	0.3461060096698319	0.1203512782802982	0.0219970894100021	0.2947990212545477	0.3194224202302912	0.0214031921452642	0.1530154358060789	0.0875787849359839	1.6004606187678534	0.1281983206781836	0.0996344015168091	1.6295343552305468	0.1761465898785457	0.1105605773139233	1.6293285251823777	-0.0298890526072832	0.2396247534586162	1.430143035238706	-0.287266151115786	0.1996478381569397	1.4713850995591715	-0.5202064570202333	0.1474738686959063	1.522941449412686	-0.5907669297062494	0.1059325000010854	1.5232906571804876	-0.6273120086098602	0.1235896006860294	1.5476806378812782	-0.6176620687792725	0.14146447551949	1.5321865580612577	0.3407754520055456	0.2580562683217078	1.4308447438765992	0.5957073545643838	0.2227577731271827	1.4536742864726613	0.8385022061941376	0.1776188718198938	1.468827575877384	0.9025281621329496	0.1436365848852007	1.4807274799440395	0.946483373220872	0.164504775015896	1.4933433172113018	0.945998108063826	0.1846715350081272	1.4744231733521282
132	1.1	0.032259386766207	0.2143091649484618	0.8992520443089685	-0.0012816533296843	0.2203101021296927	0.4831328788432186	-0.0395132913718041	0.2638787921024426	0.0826663132879771	-0.0403904993201047	0.0620201913233587	0.0173452475049651	-0.0811198601032611	0.0994921432767327	0.0218120486255662	-0.0394284421674056	0.3038447387177895	0.0232708908895259	0.2590376059661043	0.2205384939703184	0.8994915025700289	0.2731184595335824	0.2190607872837793	0.4781570290099899	0.3023147036972264	0.2850670642719237	0.0778480792709032	0.3192789918506564	0.0771840284833222	0.0183748146985378	0.3461857957361562	0.120086026445854	0.0220475040497537	0.2947726137453622	0.3195584257357036	0.0213388779573395	0.1531519412650874	0.0879162088271651	1.6005396294732122	0.1282588354524117	0.0998944380101001	1.629699672429285	0.1761857078719221	0.1109013395291329	1.6293766956623867	-0.0301030913783804	0.2398036609563877	1.430460962768802	-0.286973718322296	0.1996897206680233	1.474197804923988	-0.5194959692415119	0.1480243813408822	1.527719007306921	-0.5909125314608009	0.1071235481393346	1.528302214830975	-0.6270707205116305	0.124028660332386	1.552967437706669	-0.61673119139886	0.1413518519519786	1.5371428247641672	0.3406290308907605	0.2582392612424817	1.4313305282192972	0.5952795930993778	0.2222573111004835	1.456861194960324	0.8377843423077251	0.1774200634321671	1.4740731662931272	0.9016211910005442	0.1429623688948253	1.486481343873094	0.9449456013669476	0.1632802057380314	1.499687813365528	0.9456927736911468	0.1851705926632392	1.480435025877728
